<svg width="315" height="315" viewBox="0 0 315 315" fill="none" xmlns="http://www.w3.org/2000/svg">
<path d="M315 157.5C315 244.485 244.485 315 157.5 315C70.5152 315 0 244.485 0 157.5C0 70.5152 70.5152 0 157.5 0C244.485 0 315 70.5152 315 157.5Z" fill="url(#paint0_linear_2_15)"/>
<path d="M141.919 240.106C136.163 265.203 133.285 277.752 135.139 280.025C136.585 281.799 138.916 282.596 141.146 282.078C144.003 281.414 149.406 269.732 160.21 246.368C187.329 187.726 218.582 120.143 218.589 120.126C218.712 119.854 218.773 119.717 218.795 119.667C220.77 115.067 216.703 110.274 211.843 111.475C211.79 111.488 211.634 111.529 211.322 111.612C188.354 117.733 156.134 125.655 156.01 126.041C160.911 112.373 182.003 51 182.912 51C165.492 51 148.072 51 130.652 51C127.783 51 126.348 51 125.174 51.5277C124.224 51.955 123.401 52.6222 122.787 53.4638C122.029 54.5034 121.733 55.9075 121.141 58.7155L116.665 79.9527L94.9141 168.887C93.5987 174.266 92.941 176.955 93.7263 178.794C94.3539 180.264 95.542 181.422 97.027 182.013C98.8852 182.752 101.557 182.027 106.901 180.577L143.158 170.742C148.426 169.313 151.06 168.598 152.908 169.323C154.385 169.903 155.572 171.044 156.21 172.497C157.007 174.315 156.397 176.975 155.177 182.295L141.919 240.106Z" fill="white"/>
<defs>
<linearGradient id="paint0_linear_2_15" x1="64.5" y1="32" x2="243" y2="282.5" gradientUnits="userSpaceOnUse">
<stop stop-color="#6A89F5"/>
<stop offset="0.739583" stop-color="#8D1EE3" stop-opacity="0.96875"/>
</linearGradient>
</defs>
</svg>
